# xmcd
#
# Track frame offsets:
#	150
#	17491
#	34843
#	48379
#	62614
#	79653
#	94666
#	108533
#	123801
#	135910
#	151477
#	170871
#	189354
#	206354
#	218232
#
# Disc length: 3067 seconds
#
# Revision: 1
# Processed by: cddbd v1.5.2PL0 Copyright (c) Steve Scherf et al.
# Submitted via: audiograbber 1.83.01
#
DISCID=c10bf90f
DTITLE=Kenny Rogers - Lady
DYEAR=1900
DGENRE=Country
TTITLE0=Lady
TTITLE1=Endless Love
TTITLE2=I will always love you
TTITLE3=You are so beautiful
TTITLE4=When a man loves a woman
TTITLE5=Misty
TTITLE6=Love me tender
TTITLE7=Unforgettable
TTITLE8=If Had to be you
TTITLE9=When i fall in love
TTITLE10=I only have eyes for you
TTITLE11=my funny valentine
TTITLE12=you decorated my life
TTITLE13=Always
TTITLE14=Love is a splendored thing
EXTD=
EXTT0=
EXTT1=
EXTT2=
EXTT3=
EXTT4=
EXTT5=
EXTT6=
EXTT7=
EXTT8=
EXTT9=
EXTT10=
EXTT11=
EXTT12=
EXTT13=
EXTT14=
PLAYORDER=
